<svg xmlns="http://www.w3.org/2000/svg" xmlns:xlink="http://www.w3.org/1999/xlink" width="500" zoomAndPan="magnify" viewBox="0 0 375 374.999991" height="500" preserveAspectRatio="xMidYMid meet" version="1.0"><defs><clipPath id="a388587c64"><path d="M 0 3.925781 L 375 3.925781 L 375 348 L 0 348 Z M 0 3.925781 " clip-rule="nonzero"/></clipPath><clipPath id="343df5014d"><path d="M 0.316406 4.40625 L 373 4.40625 L 373 346.40625 L 0.316406 346.40625 Z M 0.316406 4.40625 " clip-rule="nonzero"/></clipPath></defs><g clip-path="url(#a388587c64)"><path fill="#121212" d="M 0.253906 7.4375 C 0.253906 9.402344 1.847656 10.996094 3.808594 10.996094 L 20.785156 10.996094 C 193.113281 10.996094 333.308594 151.269531 333.308594 323.683594 L 333.308594 335.664062 L 305.046875 307.394531 C 303.660156 306.003906 301.40625 306.003906 300.019531 307.394531 C 298.632812 308.777344 298.632812 311.035156 300.019531 312.421875 L 334.347656 346.769531 C 335.738281 348.15625 337.988281 348.15625 339.375 346.769531 L 373.703125 312.421875 C 374.398438 311.726562 374.746094 310.816406 374.746094 309.910156 C 374.746094 308.996094 374.398438 308.085938 373.703125 307.394531 C 372.3125 306.003906 370.066406 306.003906 368.675781 307.394531 L 340.417969 335.664062 L 340.417969 323.683594 C 340.417969 238.261719 307.171875 157.953125 246.800781 97.546875 C 186.429688 37.148438 106.164062 3.878906 20.785156 3.878906 L 3.808594 3.878906 C 1.847656 3.878906 0.253906 5.472656 0.253906 7.4375 " fill-opacity="1" fill-rule="nonzero"/></g><g clip-path="url(#343df5014d)"><path fill="#121212" d="M 0.566406 7.894531 C 0.566406 9.847656 2.148438 11.429688 4.101562 11.429688 L 20.976562 11.429688 C 192.269531 11.429688 331.625 150.785156 331.625 322.074219 L 331.625 333.976562 L 303.535156 305.890625 C 302.15625 304.507812 299.917969 304.507812 298.539062 305.890625 C 297.15625 307.265625 297.15625 309.507812 298.539062 310.886719 L 332.660156 345.007812 C 334.039062 346.386719 336.277344 346.386719 337.660156 345.007812 L 371.777344 310.886719 C 372.472656 310.195312 372.816406 309.292969 372.816406 308.390625 C 372.816406 307.484375 372.472656 306.578125 371.777344 305.890625 C 370.398438 304.507812 368.164062 304.507812 366.78125 305.890625 L 338.691406 333.976562 L 338.691406 322.074219 C 338.691406 237.210938 305.644531 157.425781 245.636719 97.417969 C 185.625 37.410156 105.839844 4.359375 20.976562 4.359375 L 4.101562 4.359375 C 2.148438 4.359375 0.566406 5.941406 0.566406 7.894531 " fill-opacity="1" fill-rule="nonzero"/></g></svg>